<svg width="32" height="32" viewBox="0 0 32 32" fill="none" xmlns="http://www.w3.org/2000/svg">
<path fill-rule="evenodd" clip-rule="evenodd" d="M16.0289 0.119995C7.20981 0.119995 0.0584717 7.39193 0.0584717 16.363C0.0584717 23.5397 4.63447 29.6284 10.98 31.7763C11.7781 31.9266 12.0712 31.4239 12.0712 30.9949C12.0712 30.6075 12.0564 29.328 12.0495 27.9707C7.60651 28.9533 6.66898 26.0542 6.66898 26.0542C5.94251 24.1767 4.89576 23.6775 4.89576 23.6775C3.44677 22.6693 5.00498 22.69 5.00498 22.69C6.60869 22.8043 7.45312 24.3639 7.45312 24.3639C8.87751 26.8472 11.1892 26.1292 12.1005 25.7142C12.2439 24.6646 12.6577 23.9475 13.1145 23.5422C9.56723 23.1314 5.83831 21.7386 5.83831 15.5147C5.83831 13.7413 6.46217 12.2923 7.48379 11.1547C7.31798 10.7453 6.77133 9.09351 7.63851 6.85612C7.63851 6.85612 8.9796 6.41956 12.0315 8.52112C13.3054 8.16122 14.6716 7.98073 16.0289 7.97455C17.3861 7.98073 18.7533 8.16122 20.0296 8.52112C23.0778 6.41956 24.4171 6.85612 24.4171 6.85612C25.2864 9.09351 24.7395 10.7453 24.5736 11.1547C25.5976 12.2923 26.2173 13.7413 26.2173 15.5147C26.2173 21.7534 22.4812 23.1271 18.925 23.5293C19.4978 24.0333 20.0082 25.0218 20.0082 26.5373C20.0082 28.7104 19.9897 30.4596 19.9897 30.9949C19.9897 31.4271 20.2772 31.9336 21.0867 31.7741C27.4288 29.6239 31.999 23.5373 31.999 16.363C31.999 7.39193 24.8487 0.119995 16.0289 0.119995Z" fill="#1F272F"/>
</svg>
