<svg width="33" height="32" viewBox="0 0 33 32" fill="none" xmlns="http://www.w3.org/2000/svg">
<path d="M15.8772 29.4204C8.02842 29.4204 1.66699 23.059 1.66699 15.2102C1.66699 7.36143 8.02842 1 15.8772 1C23.726 1 30.0874 7.36143 30.0874 15.2102" stroke="#1F272F" stroke-width="2" stroke-linecap="round" stroke-linejoin="round"/>
<path d="M2.47217 10.4736H29.1084" stroke="#1F272F" stroke-width="2" stroke-linecap="round" stroke-linejoin="round"/>
<path d="M2.47168 19.9468H15.8766" stroke="#1F272F" stroke-width="2" stroke-linecap="round" stroke-linejoin="round"/>
<path d="M22.1925 15.21C22.1925 10.8459 21.051 6.48183 18.771 2.67349C17.4337 0.442494 14.3201 0.442494 12.9843 2.67349C8.42125 10.2917 8.42125 20.1299 12.9843 27.7482C13.6522 28.8629 14.7653 29.4218 15.8784 29.4218" stroke="#1F272F" stroke-width="2" stroke-linecap="round" stroke-linejoin="round"/>
<path fill-rule="evenodd" clip-rule="evenodd" d="M27.1972 26.5308L31.1523 24.9487C31.8486 24.6708 31.8328 23.6793 31.1286 23.4219L21.7089 19.9973C21.0584 19.7604 20.4284 20.392 20.6636 21.0425L24.0883 30.4623C24.3441 31.1681 25.3356 31.1823 25.6151 30.486L27.1972 26.5308V26.5308Z" stroke="#1F272F" stroke-width="2" stroke-linecap="round" stroke-linejoin="round"/>
</svg>
