<svg width="32" height="32" viewBox="0 0 32 32" fill="none" xmlns="http://www.w3.org/2000/svg">
<path d="M6.09349 16.4577C6.09349 11.0862 10.4201 6.7439 15.7631 6.7439C21.1048 6.7439 25.4328 11.1279 25.4328 16.4577C25.4328 21.8292 21.1061 26.1715 15.7631 26.1715C10.4201 26.1715 6.09349 21.8292 6.09349 16.4577Z" stroke="#DE97FF"/>
<path d="M15.8699 6.2439C10.1897 6.2439 5.59349 10.8401 5.59349 16.5203C5.59349 22.2005 10.1897 26.7967 15.8699 26.7967C21.5501 26.7967 26.1463 22.2005 26.1463 16.5203C26.1463 10.8835 21.5501 6.2439 15.8699 6.2439ZM15.4797 26.1463C10.1897 26.1463 5.89701 21.8537 5.89701 16.5637C5.89701 11.2737 10.1897 6.98102 15.4797 6.98102C20.7696 6.98102 25.0623 11.2737 25.0623 16.5637C25.1057 21.8537 20.813 26.1463 15.4797 26.1463Z" fill="#C345FF"/>
<path d="M16.9973 2.86179C16.9973 3.42547 16.5637 3.90244 16.0434 3.90244C15.523 3.90244 15.0894 3.42547 15.0894 2.86179V1.04065C15.0894 0.476966 15.523 0 16.0434 0C16.5637 0 16.9973 0.476966 16.9973 1.04065V2.86179Z" fill="#DE97FF"/>
<path d="M16.9973 30.9593C16.9973 31.523 16.5637 32 16.0434 32C15.523 32 15.0894 31.523 15.0894 30.9593V29.1382C15.0894 28.5745 15.523 28.0976 16.0434 28.0976C16.5637 28.0976 16.9973 28.5745 16.9973 29.1382V30.9593Z" fill="#C345FF"/>
<path d="M29.1382 16.9539C28.5745 16.9539 28.0976 16.5203 28.0976 16C28.0976 15.4797 28.5745 15.0461 29.1382 15.0461H30.9593C31.523 15.0461 32 15.4797 32 16C32 16.5203 31.523 16.9539 30.9593 16.9539H29.1382Z" fill="#CE66FF"/>
<path d="M1.04065 16.9539C0.476964 16.9539 0 16.5203 0 16C0 15.4797 0.476964 15.0461 1.04065 15.0461H2.86179C3.42547 15.0461 3.90244 15.4797 3.90244 16C3.90244 16.5203 3.42547 16.9539 2.86179 16.9539H1.04065Z" fill="#CE66FF"/>
<path d="M25.9729 7.37127C25.5827 7.76152 24.9322 7.80488 24.542 7.41463C24.1518 7.02439 24.1951 6.41734 24.5854 5.98374L25.8862 4.68293C26.2764 4.29268 26.9268 4.24932 27.3171 4.63956C27.7073 5.02981 27.664 5.63685 27.2737 6.07046L25.9729 7.37127Z" fill="#DE97FF"/>
<path d="M6.11382 27.2737C5.72358 27.664 5.07317 27.7073 4.68293 27.3171C4.29269 26.9268 4.33605 26.3198 4.72629 25.8862L6.0271 24.5854C6.41735 24.1951 7.06775 24.1518 7.458 24.542C7.84824 24.9322 7.80488 25.5393 7.41464 25.9729L6.11382 27.2737Z" fill="#C345FF"/>
<path d="M24.6287 25.9729C24.2385 25.5826 24.1951 24.9322 24.5854 24.542C24.9756 24.1518 25.5826 24.1951 26.0163 24.5854L27.3171 25.8862C27.7073 26.2764 27.7507 26.9268 27.3604 27.3171C26.9702 27.7073 26.3631 27.664 25.9295 27.2737L24.6287 25.9729Z" fill="#C345FF"/>
<path d="M4.76965 6.07046C4.3794 5.68022 4.33604 5.02981 4.72629 4.63956C5.11653 4.24932 5.72358 4.29268 6.15718 4.68293L7.45799 5.98374C7.84824 6.37398 7.8916 7.02439 7.50135 7.41463C7.11111 7.80488 6.50406 7.76152 6.07046 7.37127L4.76965 6.07046Z" fill="#DE97FF"/>
</svg>
